<mxfile host="app.diagrams.net" agent="Mozilla/5.0 (Windows NT 10.0; Win64; x64) AppleWebKit/537.36 (KHTML, like Gecko) Chrome/138.0.0.0 Safari/537.36" version="28.0.4">
  <diagram name="Page-1" id="3XNTFxSQYcCCBhyseWvk">
    <mxGraphModel dx="3624" dy="1227" grid="1" gridSize="11" guides="1" tooltips="1" connect="1" arrows="1" fold="1" page="0" pageScale="1" pageWidth="850" pageHeight="1100" background="none" math="0" shadow="0">
      <root>
        <mxCell id="0" />
        <mxCell id="1" parent="0" />
        <mxCell id="2FGFBQ_vrIf0yYBramS8-2" value="&lt;div style=&quot;display: flex; justify-content: center; text-align: center; align-items: baseline; line-height: 1.25; margin-top: -2px;&quot;&gt;&lt;b style=&quot;&quot;&gt;&lt;font style=&quot;&quot;&gt;&lt;span style=&quot;font-size: 24px;&quot;&gt;Discord Automated Moderation Bot:&lt;/span&gt;&lt;br&gt;&lt;font style=&quot;font-size: 30px;&quot;&gt;Seer&lt;/font&gt;&lt;/font&gt;&lt;/b&gt;&lt;/div&gt;" style="html=1;overflow=block;blockSpacing=1;whiteSpace=wrap;fontSize=13;fontFamily=Liberation Serif;spacing=9;strokeOpacity=100;rounded=1;absoluteArcSize=1;arcSize=9;strokeWidth=NaN;lucidId=I~zrBP98Rxq1;" parent="1" vertex="1">
          <mxGeometry x="-429" y="944" width="264" height="112" as="geometry" />
        </mxCell>
        <mxCell id="2FGFBQ_vrIf0yYBramS8-3" value="&lt;b&gt;Cannot handle Dynamic Scenarios&lt;/b&gt;" style="html=1;overflow=block;blockSpacing=1;whiteSpace=wrap;fontSize=16.7;fontFamily=Liberation Serif;spacing=9;strokeOpacity=100;rounded=1;absoluteArcSize=1;arcSize=9;strokeWidth=NaN;lucidId=sbArgqK342RI;" parent="1" vertex="1">
          <mxGeometry x="-1786.5" y="439.5" width="166" height="98" as="geometry" />
        </mxCell>
        <mxCell id="2FGFBQ_vrIf0yYBramS8-4" value="&lt;b&gt;Time Consuming Moderating Activities are not Resolved&lt;/b&gt;" style="html=1;overflow=block;blockSpacing=1;whiteSpace=wrap;fontSize=16.7;fontFamily=Liberation Serif;spacing=9;strokeOpacity=100;rounded=1;absoluteArcSize=1;arcSize=9;strokeWidth=NaN;lucidId=EdAr~.gA0~f1;" parent="1" vertex="1">
          <mxGeometry x="-1822" y="674.5" width="237" height="117" as="geometry" />
        </mxCell>
        <mxCell id="2FGFBQ_vrIf0yYBramS8-5" value="&lt;b&gt;Low Algorithmic Scalability&lt;/b&gt;" style="html=1;overflow=block;blockSpacing=1;whiteSpace=wrap;fontSize=16.7;fontFamily=Liberation Serif;spacing=9;strokeOpacity=100;rounded=1;absoluteArcSize=1;arcSize=9;strokeWidth=NaN;lucidId=ShArEx~Lhpjt;" parent="1" vertex="1">
          <mxGeometry x="-1804" y="982" width="201" height="117" as="geometry" />
        </mxCell>
        <mxCell id="a9H1on18fe4t332UjABL-3" style="edgeStyle=orthogonalEdgeStyle;curved=1;rounded=0;orthogonalLoop=1;jettySize=auto;html=1;exitX=1;exitY=0.5;exitDx=0;exitDy=0;entryX=0;entryY=0.5;entryDx=0;entryDy=0;" parent="1" source="2FGFBQ_vrIf0yYBramS8-6" target="a9H1on18fe4t332UjABL-1" edge="1">
          <mxGeometry relative="1" as="geometry" />
        </mxCell>
        <mxCell id="2FGFBQ_vrIf0yYBramS8-6" value="Rule Based Moderation" style="html=1;overflow=block;blockSpacing=1;whiteSpace=wrap;fontSize=16.7;fontFamily=Liberation Serif;spacing=9;strokeOpacity=100;rounded=1;absoluteArcSize=1;arcSize=9;strokeWidth=NaN;lucidId=SkArhsacxUcV;" parent="1" vertex="1">
          <mxGeometry x="143" y="569" width="155" height="92" as="geometry" />
        </mxCell>
        <mxCell id="2FGFBQ_vrIf0yYBramS8-7" value="Context Based Moderation" style="html=1;overflow=block;blockSpacing=1;whiteSpace=wrap;fontSize=16.7;fontFamily=Liberation Serif;spacing=9;strokeOpacity=100;rounded=1;absoluteArcSize=1;arcSize=9;strokeWidth=NaN;lucidId=1kArZPC6Tyem;" parent="1" vertex="1">
          <mxGeometry x="77" y="1225" width="156" height="87" as="geometry" />
        </mxCell>
        <mxCell id="2FGFBQ_vrIf0yYBramS8-8" value="" style="html=1;jettySize=18;whiteSpace=wrap;fontSize=13;strokeOpacity=100;strokeWidth=0.8;rounded=1;arcSize=12;curved=1;startArrow=none;endArrow=block;endFill=1;exitX=0.564;exitY=-0.008;exitPerimeter=0;entryX=-0.005;entryY=0.5;entryPerimeter=0;lucidId=BlAr1ml1R~h.;edgeStyle=orthogonalEdgeStyle;" parent="1" source="2FGFBQ_vrIf0yYBramS8-2" target="2FGFBQ_vrIf0yYBramS8-6" edge="1">
          <mxGeometry width="100" height="100" relative="1" as="geometry" />
        </mxCell>
        <mxCell id="2FGFBQ_vrIf0yYBramS8-9" value="" style="html=1;jettySize=18;whiteSpace=wrap;fontSize=13;strokeOpacity=100;strokeWidth=0.8;rounded=1;arcSize=12;curved=1;startArrow=none;endArrow=block;endFill=1;exitX=1.004;exitY=0.5;exitPerimeter=0;entryX=-0.005;entryY=0.5;entryPerimeter=0;lucidId=DlArk4mFL0Jv;edgeStyle=orthogonalEdgeStyle;" parent="1" source="2FGFBQ_vrIf0yYBramS8-2" target="2FGFBQ_vrIf0yYBramS8-7" edge="1">
          <mxGeometry width="100" height="100" relative="1" as="geometry" />
        </mxCell>
        <mxCell id="2FGFBQ_vrIf0yYBramS8-10" value="Report/Flagged Conversation Ticketing Sytem" style="html=1;overflow=block;blockSpacing=1;whiteSpace=wrap;fontSize=16.7;fontFamily=Liberation Serif;spacing=9;strokeOpacity=100;rounded=1;absoluteArcSize=1;arcSize=9;strokeWidth=NaN;lucidId=cmArEo6nTfix;" parent="1" vertex="1">
          <mxGeometry x="-2" y="1647" width="156" height="87" as="geometry" />
        </mxCell>
        <mxCell id="2FGFBQ_vrIf0yYBramS8-11" value="" style="html=1;jettySize=18;whiteSpace=wrap;fontSize=13;strokeOpacity=100;strokeWidth=0.8;rounded=1;arcSize=12;curved=1;startArrow=none;endArrow=block;endFill=1;exitX=0.5;exitY=1.008;exitPerimeter=0;entryX=-0.005;entryY=0.5;entryPerimeter=0;lucidId=1nArkaziF4ny;edgeStyle=orthogonalEdgeStyle;" parent="1" source="2FGFBQ_vrIf0yYBramS8-2" target="2FGFBQ_vrIf0yYBramS8-10" edge="1">
          <mxGeometry width="100" height="100" relative="1" as="geometry" />
        </mxCell>
        <mxCell id="2FGFBQ_vrIf0yYBramS8-12" value="Moderation Activity Log" style="html=1;overflow=block;blockSpacing=1;whiteSpace=wrap;fontSize=16.7;fontFamily=Liberation Serif;spacing=9;strokeOpacity=100;rounded=1;absoluteArcSize=1;arcSize=9;strokeWidth=NaN;lucidId=9nArPjrvxXt1;" parent="1" vertex="1">
          <mxGeometry x="11" y="1364" width="156" height="87" as="geometry" />
        </mxCell>
        <mxCell id="2FGFBQ_vrIf0yYBramS8-13" value="" style="html=1;jettySize=18;whiteSpace=wrap;fontSize=13;strokeOpacity=100;strokeWidth=0.8;rounded=1;arcSize=12;curved=1;startArrow=none;endArrow=block;endFill=1;exitX=1.004;exitY=0.5;exitPerimeter=0;entryX=-0.005;entryY=0.5;entryPerimeter=0;lucidId=poArhmmf1yh7;edgeStyle=orthogonalEdgeStyle;" parent="1" source="2FGFBQ_vrIf0yYBramS8-2" target="2FGFBQ_vrIf0yYBramS8-12" edge="1">
          <mxGeometry width="100" height="100" relative="1" as="geometry" />
        </mxCell>
        <mxCell id="NHAxA7DP7fW1XG9nDN0d-18" style="edgeStyle=orthogonalEdgeStyle;curved=1;rounded=0;orthogonalLoop=1;jettySize=auto;html=1;exitX=1;exitY=0.5;exitDx=0;exitDy=0;entryX=0;entryY=0.5;entryDx=0;entryDy=0;" parent="1" source="2FGFBQ_vrIf0yYBramS8-14" target="NHAxA7DP7fW1XG9nDN0d-30" edge="1">
          <mxGeometry relative="1" as="geometry" />
        </mxCell>
        <mxCell id="2FGFBQ_vrIf0yYBramS8-14" value="Exact Pattern Matching" style="html=1;overflow=block;blockSpacing=1;whiteSpace=wrap;fontSize=16.7;fontFamily=Liberation Serif;spacing=9;strokeOpacity=100;rounded=1;absoluteArcSize=1;arcSize=9;strokeWidth=NaN;lucidId=.oArof~L8ejZ;" parent="1" vertex="1">
          <mxGeometry x="487" y="451" width="136" height="85" as="geometry" />
        </mxCell>
        <mxCell id="2FGFBQ_vrIf0yYBramS8-46" style="edgeStyle=orthogonalEdgeStyle;shape=link;rounded=0;orthogonalLoop=1;jettySize=auto;html=1;entryX=1;entryY=0.5;entryDx=0;entryDy=0;" parent="1" source="2FGFBQ_vrIf0yYBramS8-15" target="2FGFBQ_vrIf0yYBramS8-20" edge="1">
          <mxGeometry relative="1" as="geometry">
            <Array as="points">
              <mxPoint x="552" y="704" />
              <mxPoint x="-168" y="704" />
              <mxPoint x="-168" y="418" />
              <mxPoint x="-1167" y="418" />
            </Array>
          </mxGeometry>
        </mxCell>
        <mxCell id="NHAxA7DP7fW1XG9nDN0d-35" style="edgeStyle=orthogonalEdgeStyle;curved=1;rounded=0;orthogonalLoop=1;jettySize=auto;html=1;" parent="1" source="2FGFBQ_vrIf0yYBramS8-15" target="NHAxA7DP7fW1XG9nDN0d-30" edge="1">
          <mxGeometry relative="1" as="geometry" />
        </mxCell>
        <mxCell id="2FGFBQ_vrIf0yYBramS8-15" value="Approximate Pattern Matching" style="html=1;overflow=block;blockSpacing=1;whiteSpace=wrap;fontSize=16.7;fontFamily=Liberation Serif;spacing=9;strokeOpacity=100;rounded=1;absoluteArcSize=1;arcSize=0;strokeWidth=NaN;lucidId=jpArh5tXi4C4;" parent="1" vertex="1">
          <mxGeometry x="484" y="574.5" width="142" height="81" as="geometry" />
        </mxCell>
        <mxCell id="2FGFBQ_vrIf0yYBramS8-16" value="" style="html=1;jettySize=18;whiteSpace=wrap;fontSize=13;strokeOpacity=100;strokeWidth=0.8;rounded=1;arcSize=12;curved=1;startArrow=none;endArrow=block;endFill=1;exitX=1.005;exitY=0.5;exitPerimeter=0;entryX=-0.006;entryY=0.5;entryPerimeter=0;lucidId=zpArzoGXioJ0;edgeStyle=orthogonalEdgeStyle;" parent="1" source="2FGFBQ_vrIf0yYBramS8-6" target="2FGFBQ_vrIf0yYBramS8-14" edge="1">
          <mxGeometry width="100" height="100" relative="1" as="geometry" />
        </mxCell>
        <mxCell id="2FGFBQ_vrIf0yYBramS8-17" value="" style="html=1;jettySize=18;whiteSpace=wrap;fontSize=13;strokeOpacity=100;strokeWidth=0.8;rounded=1;arcSize=12;curved=1;startArrow=none;endArrow=block;endFill=1;exitX=1.005;exitY=0.5;exitPerimeter=0;entryX=-0.005;entryY=0.5;entryPerimeter=0;lucidId=FpArXSA7FsKY;edgeStyle=orthogonalEdgeStyle;" parent="1" source="2FGFBQ_vrIf0yYBramS8-6" target="2FGFBQ_vrIf0yYBramS8-15" edge="1">
          <mxGeometry width="100" height="100" relative="1" as="geometry" />
        </mxCell>
        <mxCell id="2FGFBQ_vrIf0yYBramS8-20" value="Common workarounds to banned terms are intentional typos that preserves the semantic of the term " style="html=1;overflow=block;blockSpacing=1;whiteSpace=wrap;fontSize=16.7;fontFamily=Liberation Serif;spacing=9;strokeOpacity=100;rounded=1;absoluteArcSize=1;arcSize=9;strokeWidth=NaN;lucidId=GMQrAjSrDB5_;" parent="1" vertex="1">
          <mxGeometry x="-1397" y="363" width="224" height="110" as="geometry" />
        </mxCell>
        <mxCell id="2FGFBQ_vrIf0yYBramS8-22" value="Underlying human intentions cannot be confidently identified and explicitly applied to rule based systems" style="html=1;overflow=block;blockSpacing=1;whiteSpace=wrap;fontSize=16.7;fontFamily=Liberation Serif;spacing=9;strokeOpacity=100;rounded=1;absoluteArcSize=1;arcSize=9;strokeWidth=NaN;lucidId=fRQrsjbgfOsl;" parent="1" vertex="1">
          <mxGeometry x="-1391" y="519" width="224" height="110" as="geometry" />
        </mxCell>
        <mxCell id="2FGFBQ_vrIf0yYBramS8-21" value="" style="html=1;jettySize=18;whiteSpace=wrap;fontSize=13;strokeOpacity=100;strokeWidth=0.8;rounded=1;arcSize=12;curved=1;startArrow=none;endArrow=block;endFill=1;exitX=1.005;exitY=0.5;exitPerimeter=0;entryX=-0.003;entryY=0.5;entryPerimeter=0;lucidId=TQQr5YlVdPNO;edgeStyle=orthogonalEdgeStyle;" parent="1" source="2FGFBQ_vrIf0yYBramS8-3" target="2FGFBQ_vrIf0yYBramS8-20" edge="1">
          <mxGeometry width="100" height="100" relative="1" as="geometry" />
        </mxCell>
        <mxCell id="2FGFBQ_vrIf0yYBramS8-23" value="" style="html=1;jettySize=18;whiteSpace=wrap;fontSize=13;strokeOpacity=100;strokeWidth=0.8;rounded=1;arcSize=12;curved=1;startArrow=none;endArrow=block;endFill=1;exitX=1.005;exitY=0.5;exitPerimeter=0;entryX=-0.003;entryY=0.5;entryPerimeter=0;lucidId=h.RrzyvCOwPt;edgeStyle=orthogonalEdgeStyle;" parent="1" source="2FGFBQ_vrIf0yYBramS8-3" target="2FGFBQ_vrIf0yYBramS8-22" edge="1">
          <mxGeometry width="100" height="100" relative="1" as="geometry" />
        </mxCell>
        <mxCell id="2FGFBQ_vrIf0yYBramS8-24" value="Understanding the context is an important aspect of moderation." style="html=1;overflow=block;blockSpacing=1;whiteSpace=wrap;fontSize=16.7;fontFamily=Liberation Serif;spacing=9;strokeOpacity=100;rounded=1;absoluteArcSize=1;arcSize=9;strokeWidth=NaN;lucidId=7dSrX2SArxJk;" parent="1" vertex="1">
          <mxGeometry x="-1379.5" y="688" width="224" height="90" as="geometry" />
        </mxCell>
        <mxCell id="2FGFBQ_vrIf0yYBramS8-25" value="" style="html=1;jettySize=18;whiteSpace=wrap;fontSize=13;strokeOpacity=100;strokeWidth=0.8;rounded=1;arcSize=12;curved=1;startArrow=none;endArrow=block;endFill=1;exitX=1.003;exitY=0.5;exitPerimeter=0;entryX=-0.003;entryY=0.5;entryPerimeter=0;lucidId=noSrhINv7O~1;edgeStyle=orthogonalEdgeStyle;" parent="1" source="2FGFBQ_vrIf0yYBramS8-4" target="2FGFBQ_vrIf0yYBramS8-24" edge="1">
          <mxGeometry width="100" height="100" relative="1" as="geometry" />
        </mxCell>
        <mxCell id="2FGFBQ_vrIf0yYBramS8-26" value="What part in the streams of messages is relevant to a specific conversation?" style="html=1;overflow=block;blockSpacing=1;whiteSpace=wrap;fontSize=16.7;fontFamily=Liberation Serif;spacing=9;strokeOpacity=100;rounded=1;absoluteArcSize=1;arcSize=9;strokeWidth=NaN;lucidId=QoSrdTFWGcnr;" parent="1" vertex="1">
          <mxGeometry x="-1379.5" y="835" width="224" height="90" as="geometry" />
        </mxCell>
        <mxCell id="2FGFBQ_vrIf0yYBramS8-27" value="" style="html=1;jettySize=18;whiteSpace=wrap;fontSize=13;strokeOpacity=100;strokeWidth=0.8;rounded=1;arcSize=12;curved=1;startArrow=none;endArrow=block;endFill=1;exitX=1.003;exitY=0.5;exitPerimeter=0;entryX=-0.003;entryY=0.5;entryPerimeter=0;lucidId=ypSrLVchJN8V;edgeStyle=orthogonalEdgeStyle;" parent="1" source="2FGFBQ_vrIf0yYBramS8-4" target="2FGFBQ_vrIf0yYBramS8-26" edge="1">
          <mxGeometry width="100" height="100" relative="1" as="geometry" />
        </mxCell>
        <mxCell id="cgpnfaBYFZRDmZWE0M_2-11" style="edgeStyle=orthogonalEdgeStyle;rounded=0;orthogonalLoop=1;jettySize=auto;html=1;" parent="1" source="2FGFBQ_vrIf0yYBramS8-28" target="NHAxA7DP7fW1XG9nDN0d-24" edge="1">
          <mxGeometry relative="1" as="geometry">
            <mxPoint x="-1045" y="1025.2352941176468" as="targetPoint" />
          </mxGeometry>
        </mxCell>
        <mxCell id="cgpnfaBYFZRDmZWE0M_2-12" style="edgeStyle=orthogonalEdgeStyle;rounded=0;orthogonalLoop=1;jettySize=auto;html=1;entryX=0;entryY=0.5;entryDx=0;entryDy=0;" parent="1" source="2FGFBQ_vrIf0yYBramS8-28" target="cgpnfaBYFZRDmZWE0M_2-2" edge="1">
          <mxGeometry relative="1" as="geometry" />
        </mxCell>
        <mxCell id="2FGFBQ_vrIf0yYBramS8-28" value="&lt;div style=&quot;display: flex; justify-content: center; text-align: center; align-items: baseline; font-size: 0; line-height: 1.25;margin-top: -2px;&quot;&gt;&lt;span&gt;&lt;span style=&quot;font-size:16.7px;font-family: Liberation Serif;&quot;&gt;Existing Solutions:&#xa;&lt;/span&gt;&lt;/span&gt;&lt;/div&gt;&lt;div style=&quot;display: flex; justify-content: center; text-align: center; align-items: baseline; font-size: 0; line-height: 1.25;margin-top: -2px;&quot;&gt;&lt;span&gt;&lt;span style=&quot;font-size:16.7px;font-family: Liberation Serif;&quot;&gt;Regex, Brute-Force, Library Functions (Boyer-Moore, KMP, Z-Algo, ...).&#xa;&lt;/span&gt;&lt;/span&gt;&lt;/div&gt;&lt;div style=&quot;display: flex; justify-content: center; text-align: center; align-items: baseline; font-size: 0; line-height: 1.25;margin-top: -2px;&quot;&gt;&lt;span&gt;&lt;span style=&quot;font-size:16.7px;font-family: Liberation Serif;&quot;&gt;&#xa;&lt;/span&gt;&lt;/span&gt;&lt;/div&gt;&lt;div style=&quot;display: flex; justify-content: center; text-align: center; align-items: baseline; font-size: 0; line-height: 1.25;margin-top: -2px;&quot;&gt;&lt;span&gt;&lt;/span&gt;&lt;/div&gt;" style="html=1;overflow=block;blockSpacing=1;whiteSpace=wrap;fontSize=13;fontFamily=Liberation Serif;spacing=9;strokeOpacity=100;rounded=1;absoluteArcSize=1;arcSize=9;strokeWidth=NaN;lucidId=gzSr-hWCiP87;" parent="1" vertex="1">
          <mxGeometry x="-1363" y="986" width="214" height="113" as="geometry" />
        </mxCell>
        <mxCell id="2FGFBQ_vrIf0yYBramS8-29" value="" style="html=1;jettySize=18;whiteSpace=wrap;fontSize=13;strokeOpacity=100;strokeWidth=0.8;rounded=1;arcSize=12;curved=1;startArrow=none;endArrow=block;endFill=1;exitX=1.004;exitY=0.5;exitPerimeter=0;entryX=-0.003;entryY=0.5;entryPerimeter=0;lucidId=uXSrF3_nDw2J;edgeStyle=orthogonalEdgeStyle;" parent="1" source="2FGFBQ_vrIf0yYBramS8-5" target="2FGFBQ_vrIf0yYBramS8-28" edge="1">
          <mxGeometry width="100" height="100" relative="1" as="geometry" />
        </mxCell>
        <mxCell id="2FGFBQ_vrIf0yYBramS8-30" value="&lt;div style=&quot;display: flex; justify-content: center; text-align: center; align-items: baseline; font-size: 0; line-height: 1.25;margin-top: -2px;&quot;&gt;&lt;span&gt;&lt;span style=&quot;font-size:16.7px;font-family: Liberation Serif;&quot;&gt;Requirements:&#xa;&lt;/span&gt;&lt;/span&gt;&lt;/div&gt;&lt;ul style=&quot;margin: 0px; padding-left: 10px;list-style-position: inside; list-style-type:disc&quot;&gt;&lt;li style=&quot;text-align:left;font-size:16.7px;&quot;&gt;&lt;span style=&quot;margin-left: 0px;margin-top: -2px;&quot;&gt;&lt;span style=&quot;font-size:16.7px;font-family: Liberation Serif;&quot;&gt;Hard Moderation (Rule-Based) needs to be near real-time.&lt;/span&gt;&lt;/span&gt;&lt;/li&gt;&lt;li style=&quot;text-align:left;font-size:16.7px;&quot;&gt;&lt;span style=&quot;margin-left: 0px;margin-top: -2px;&quot;&gt;&lt;span style=&quot;font-size:16.7px;font-family: Liberation Serif;&quot;&gt;Message Content is expected to be very large.&lt;/span&gt;&lt;/span&gt;&lt;/li&gt;&lt;li style=&quot;text-align:left;font-size:16.7px;&quot;&gt;&lt;span style=&quot;margin-left: 0px;margin-top: -2px;&quot;&gt;&lt;span style=&quot;font-size:16.7px;font-family: Liberation Serif;&quot;&gt;Banned Terms are expected to be short but there can be many of them (Profanity, Slurs, ...).&lt;/span&gt;&lt;/span&gt;&lt;/li&gt;&lt;/ul&gt;" style="html=1;overflow=block;blockSpacing=1;whiteSpace=wrap;fontSize=13;fontFamily=Liberation Serif;spacing=9;strokeOpacity=100;rounded=1;absoluteArcSize=1;arcSize=9;strokeWidth=NaN;lucidId=QYSrCihSnzUK;" parent="1" vertex="1">
          <mxGeometry x="-1358" y="1144" width="214" height="254" as="geometry" />
        </mxCell>
        <mxCell id="2FGFBQ_vrIf0yYBramS8-31" value="" style="html=1;jettySize=18;whiteSpace=wrap;fontSize=13;strokeOpacity=100;strokeWidth=0.8;rounded=1;arcSize=12;curved=1;startArrow=none;endArrow=block;endFill=1;exitX=1.004;exitY=0.5;exitPerimeter=0;entryX=-0.003;entryY=0.5;entryPerimeter=0;lucidId=D3SrOBuwcNAi;edgeStyle=orthogonalEdgeStyle;" parent="1" source="2FGFBQ_vrIf0yYBramS8-5" target="2FGFBQ_vrIf0yYBramS8-30" edge="1">
          <mxGeometry width="100" height="100" relative="1" as="geometry" />
        </mxCell>
        <mxCell id="2FGFBQ_vrIf0yYBramS8-32" value="Bot Interaction" style="html=1;overflow=block;blockSpacing=1;whiteSpace=wrap;fontSize=16.7;fontFamily=Liberation Serif;spacing=9;strokeOpacity=100;rounded=1;absoluteArcSize=1;arcSize=9;strokeWidth=NaN;lucidId=w5SrviVAnn.T;" parent="1" vertex="1">
          <mxGeometry x="-2" y="1526" width="156" height="87" as="geometry" />
        </mxCell>
        <mxCell id="2FGFBQ_vrIf0yYBramS8-33" value="" style="html=1;jettySize=18;whiteSpace=wrap;fontSize=13;strokeOpacity=100;strokeWidth=0.8;rounded=1;arcSize=12;curved=1;startArrow=none;endArrow=block;endFill=1;exitX=0.5;exitY=1.008;exitPerimeter=0;entryX=-0.005;entryY=0.5;entryPerimeter=0;lucidId=Q5SrM94I4Yb1;edgeStyle=orthogonalEdgeStyle;" parent="1" source="2FGFBQ_vrIf0yYBramS8-2" target="2FGFBQ_vrIf0yYBramS8-32" edge="1">
          <mxGeometry width="100" height="100" relative="1" as="geometry" />
        </mxCell>
        <mxCell id="cgpnfaBYFZRDmZWE0M_2-2" value="&lt;div style=&quot;display: flex; justify-content: center; text-align: center; align-items: baseline; font-size: 0; line-height: 1.25;margin-top: -2px;&quot;&gt;&lt;span&gt;&lt;br&gt;&lt;/span&gt;&lt;/div&gt;&lt;div style=&quot;display: flex; justify-content: center; text-align: center; align-items: baseline; line-height: 1.25; margin-top: -2px; font-size: 0px;&quot;&gt;&lt;span&gt;&lt;span style=&quot;font-size:16.7px;font-family: Liberation Serif;&quot;&gt;&lt;b&gt;Pitfall in Common Open Source Discord Bot Moderation.&lt;br&gt;&amp;nbsp;&lt;/b&gt;&lt;br&gt;NFA-based Regex Engines are vulnerable to ReDOS attacks.&lt;br&gt;&lt;/span&gt;&lt;span style=&quot;font-size: 17px;&quot;&gt;https://github.com/Cog-Creators/Red-DiscordBot&lt;br&gt;&lt;/span&gt;&lt;span style=&quot;font-size:16.7px;font-family: Liberation Serif;&quot;&gt;&lt;br&gt;Discord Internal Auto Moderation avoids this using DFA-based Regex Engines&lt;br&gt;&lt;/span&gt;&lt;span style=&quot;font-size: 16.7px; text-align: left;&quot;&gt;https://discord.com/developers/docs/resources/auto-moderation#auto-moderation&lt;/span&gt;&lt;span style=&quot;font-size:16.7px;font-family: Liberation Serif;&quot;&gt;&lt;br&gt;&lt;br&gt;&lt;/span&gt;&lt;/span&gt;&lt;span&gt;&lt;span style=&quot;font-size:16.7px;font-family: Liberation Serif;&quot;&gt;&lt;br&gt;&lt;/span&gt;&lt;/span&gt;&lt;span&gt;&lt;span style=&quot;font-size:16.7px;font-family: Liberation Serif;&quot;&gt;&lt;br&gt;&lt;/span&gt;&lt;/span&gt;&lt;/div&gt;&lt;div style=&quot;display: flex; justify-content: center; text-align: center; align-items: baseline; font-size: 0; line-height: 1.25;margin-top: -2px;&quot;&gt;&lt;span&gt;&lt;/span&gt;&lt;/div&gt;" style="html=1;overflow=block;blockSpacing=1;whiteSpace=wrap;fontSize=13;fontFamily=Liberation Serif;spacing=9;strokeOpacity=100;rounded=1;absoluteArcSize=1;arcSize=9;strokeWidth=NaN;lucidId=N-SrfeByA0jb;" parent="1" vertex="1">
          <mxGeometry x="-1005.75" y="1243" width="467.5" height="198" as="geometry" />
        </mxCell>
        <mxCell id="NHAxA7DP7fW1XG9nDN0d-4" style="edgeStyle=orthogonalEdgeStyle;curved=1;rounded=0;orthogonalLoop=1;jettySize=auto;html=1;exitX=0.5;exitY=1;exitDx=0;exitDy=0;" parent="1" source="NHAxA7DP7fW1XG9nDN0d-1" target="NHAxA7DP7fW1XG9nDN0d-2" edge="1">
          <mxGeometry relative="1" as="geometry" />
        </mxCell>
        <mxCell id="NHAxA7DP7fW1XG9nDN0d-1" value="Discord API&#39;s Gateway Intent" style="html=1;overflow=block;blockSpacing=1;whiteSpace=wrap;fontSize=16.7;fontFamily=Liberation Serif;spacing=9;strokeOpacity=100;rounded=1;absoluteArcSize=1;arcSize=9;strokeWidth=NaN;lucidId=.oArof~L8ejZ;" parent="1" vertex="1">
          <mxGeometry x="162" y="-44" width="136" height="85" as="geometry" />
        </mxCell>
        <mxCell id="NHAxA7DP7fW1XG9nDN0d-10" style="edgeStyle=orthogonalEdgeStyle;curved=1;rounded=0;orthogonalLoop=1;jettySize=auto;html=1;exitX=0.5;exitY=1;exitDx=0;exitDy=0;" parent="1" source="NHAxA7DP7fW1XG9nDN0d-2" target="NHAxA7DP7fW1XG9nDN0d-9" edge="1">
          <mxGeometry relative="1" as="geometry" />
        </mxCell>
        <mxCell id="NHAxA7DP7fW1XG9nDN0d-14" style="edgeStyle=orthogonalEdgeStyle;curved=1;rounded=0;orthogonalLoop=1;jettySize=auto;html=1;" parent="1" source="NHAxA7DP7fW1XG9nDN0d-2" edge="1">
          <mxGeometry relative="1" as="geometry">
            <mxPoint x="49.5" y="121" as="targetPoint" />
          </mxGeometry>
        </mxCell>
        <mxCell id="NHAxA7DP7fW1XG9nDN0d-2" value="Event Listener:&lt;br&gt;Message Content" style="html=1;overflow=block;blockSpacing=1;whiteSpace=wrap;fontSize=16.7;fontFamily=Liberation Serif;spacing=9;strokeOpacity=100;rounded=1;absoluteArcSize=1;arcSize=9;strokeWidth=NaN;lucidId=.oArof~L8ejZ;" parent="1" vertex="1">
          <mxGeometry x="-33" y="121" width="165" height="77" as="geometry" />
        </mxCell>
        <mxCell id="NHAxA7DP7fW1XG9nDN0d-13" style="edgeStyle=orthogonalEdgeStyle;curved=1;rounded=0;orthogonalLoop=1;jettySize=auto;html=1;exitX=1;exitY=0.5;exitDx=0;exitDy=0;" parent="1" source="NHAxA7DP7fW1XG9nDN0d-9" target="NHAxA7DP7fW1XG9nDN0d-12" edge="1">
          <mxGeometry relative="1" as="geometry" />
        </mxCell>
        <mxCell id="NHAxA7DP7fW1XG9nDN0d-9" value="Generate Suffix Tree (Ukkonen&#39;s Algo)" style="html=1;overflow=block;blockSpacing=1;whiteSpace=wrap;fontSize=16.7;fontFamily=Liberation Serif;spacing=9;strokeOpacity=100;rounded=1;absoluteArcSize=1;arcSize=9;strokeWidth=NaN;lucidId=.oArof~L8ejZ;" parent="1" vertex="1">
          <mxGeometry x="-110" y="301" width="165" height="77" as="geometry" />
        </mxCell>
        <mxCell id="NHAxA7DP7fW1XG9nDN0d-16" style="edgeStyle=orthogonalEdgeStyle;curved=1;rounded=0;orthogonalLoop=1;jettySize=auto;html=1;exitX=1;exitY=0.5;exitDx=0;exitDy=0;" parent="1" source="NHAxA7DP7fW1XG9nDN0d-12" target="NHAxA7DP7fW1XG9nDN0d-15" edge="1">
          <mxGeometry relative="1" as="geometry" />
        </mxCell>
        <mxCell id="NHAxA7DP7fW1XG9nDN0d-12" value="Generate Suffix Array (DFS)" style="html=1;overflow=block;blockSpacing=1;whiteSpace=wrap;fontSize=16.7;fontFamily=Liberation Serif;spacing=9;strokeOpacity=100;rounded=1;absoluteArcSize=1;arcSize=9;strokeWidth=NaN;lucidId=.oArof~L8ejZ;" parent="1" vertex="1">
          <mxGeometry x="154" y="301" width="165" height="77" as="geometry" />
        </mxCell>
        <mxCell id="NHAxA7DP7fW1XG9nDN0d-22" style="edgeStyle=orthogonalEdgeStyle;curved=1;rounded=0;orthogonalLoop=1;jettySize=auto;html=1;exitX=1;exitY=0.5;exitDx=0;exitDy=0;" parent="1" source="NHAxA7DP7fW1XG9nDN0d-15" target="NHAxA7DP7fW1XG9nDN0d-17" edge="1">
          <mxGeometry relative="1" as="geometry" />
        </mxCell>
        <mxCell id="NHAxA7DP7fW1XG9nDN0d-15" value="Generate BWT" style="html=1;overflow=block;blockSpacing=1;whiteSpace=wrap;fontSize=16.7;fontFamily=Liberation Serif;spacing=9;strokeOpacity=100;rounded=1;absoluteArcSize=1;arcSize=9;strokeWidth=NaN;lucidId=.oArof~L8ejZ;" parent="1" vertex="1">
          <mxGeometry x="440" y="301" width="165" height="77" as="geometry" />
        </mxCell>
        <mxCell id="NHAxA7DP7fW1XG9nDN0d-26" style="edgeStyle=orthogonalEdgeStyle;curved=1;rounded=0;orthogonalLoop=1;jettySize=auto;html=1;exitX=1;exitY=0.5;exitDx=0;exitDy=0;" parent="1" source="NHAxA7DP7fW1XG9nDN0d-17" target="NHAxA7DP7fW1XG9nDN0d-25" edge="1">
          <mxGeometry relative="1" as="geometry" />
        </mxCell>
        <mxCell id="NHAxA7DP7fW1XG9nDN0d-28" style="edgeStyle=orthogonalEdgeStyle;curved=1;rounded=0;orthogonalLoop=1;jettySize=auto;html=1;" parent="1" source="NHAxA7DP7fW1XG9nDN0d-17" target="NHAxA7DP7fW1XG9nDN0d-27" edge="1">
          <mxGeometry relative="1" as="geometry" />
        </mxCell>
        <mxCell id="20R_17lT6FD7MGeCCTBO-6" style="rounded=0;orthogonalLoop=1;jettySize=auto;html=1;entryX=0;entryY=0.5;entryDx=0;entryDy=0;" parent="1" source="NHAxA7DP7fW1XG9nDN0d-17" target="20R_17lT6FD7MGeCCTBO-5" edge="1">
          <mxGeometry relative="1" as="geometry" />
        </mxCell>
        <mxCell id="NHAxA7DP7fW1XG9nDN0d-17" value="BWT Pattern Matching" style="html=1;overflow=block;blockSpacing=1;whiteSpace=wrap;fontSize=16.7;fontFamily=Liberation Serif;spacing=9;strokeOpacity=100;rounded=1;absoluteArcSize=1;arcSize=9;strokeWidth=NaN;lucidId=.oArof~L8ejZ;" parent="1" vertex="1">
          <mxGeometry x="704" y="297" width="136" height="85" as="geometry" />
        </mxCell>
        <mxCell id="NHAxA7DP7fW1XG9nDN0d-24" value="&lt;div style=&quot;display: flex; justify-content: center; align-items: baseline; line-height: 1.25; margin-top: -2px; font-size: 0px;&quot;&gt;&lt;span&gt;&lt;span style=&quot;font-size:16.7px;font-family: Liberation Serif;&quot;&gt;&lt;b&gt;Time Complexity Analysis on Common Solutions&lt;/b&gt;&lt;br&gt;&lt;br&gt;P: Number of Patterns&lt;br&gt;P_i: Length of Pattern i&lt;br&gt;T: Length of Text&lt;br&gt;&lt;br&gt;Naive/Brute-Force, Regex (Exact Match): O(&lt;sub&gt;i=0&lt;/sub&gt;&lt;/span&gt;&lt;span style=&quot;font-size: 17px; background-color: transparent; color: light-dark(rgb(0, 0, 0), rgb(255, 255, 255));&quot;&gt;⅀&lt;sup&gt;P&lt;/sup&gt;(P_i * T))&lt;br&gt;&amp;nbsp;Z-Algo: O(&lt;sub&gt;i=0&lt;/sub&gt;&lt;/span&gt;&lt;span style=&quot;font-size: 17px; background-color: transparent; color: light-dark(rgb(0, 0, 0), rgb(255, 255, 255));&quot;&gt;⅀&lt;sup&gt;P&lt;/sup&gt;(P_i + T))&lt;br&gt;&lt;/span&gt;&lt;span style=&quot;font-size: 17px; background-color: transparent; color: light-dark(rgb(0, 0, 0), rgb(255, 255, 255));&quot;&gt;&lt;br&gt;Problem: When the number of banned terms scale, the matching algorithm will not scale-well because the Text (expected to be very large) is being re-processed for each Pattern.&lt;/span&gt;&lt;/span&gt;&lt;sup&gt;P&lt;/sup&gt;&lt;span style=&quot;font-size: 17px;&quot;&gt;&lt;br&gt;&lt;/span&gt;&lt;/div&gt;&lt;div style=&quot;display: flex; justify-content: center; text-align: center; align-items: baseline; font-size: 0; line-height: 1.25;margin-top: -2px;&quot;&gt;&lt;span&gt;&lt;/span&gt;&lt;/div&gt;" style="html=1;overflow=block;blockSpacing=1;whiteSpace=wrap;fontSize=13;fontFamily=Liberation Serif;spacing=9;strokeOpacity=100;rounded=1;absoluteArcSize=1;arcSize=9;strokeWidth=NaN;lucidId=N-SrfeByA0jb;" parent="1" vertex="1">
          <mxGeometry x="-1034" y="893" width="517" height="299" as="geometry" />
        </mxCell>
        <mxCell id="NHAxA7DP7fW1XG9nDN0d-25" value="Time Complexity:&lt;br&gt;&lt;div&gt;O(&lt;span style=&quot;font-size: 11.8056px;&quot;&gt;&lt;sub&gt;i=0&lt;/sub&gt;&lt;/span&gt;⅀&lt;sup&gt;P&lt;/sup&gt;P_i + T)&lt;/div&gt;" style="html=1;overflow=block;blockSpacing=1;whiteSpace=wrap;fontSize=16.7;fontFamily=Liberation Serif;spacing=9;strokeOpacity=100;rounded=1;absoluteArcSize=1;arcSize=9;strokeWidth=NaN;lucidId=.oArof~L8ejZ;" parent="1" vertex="1">
          <mxGeometry x="902" y="110" width="198" height="88" as="geometry" />
        </mxCell>
        <mxCell id="NHAxA7DP7fW1XG9nDN0d-27" value="Improvement:&lt;br&gt;Remove reprocessing of the large text over each banned terms" style="html=1;overflow=block;blockSpacing=1;whiteSpace=wrap;fontSize=16.7;fontFamily=Liberation Serif;spacing=9;strokeOpacity=100;rounded=1;absoluteArcSize=1;arcSize=9;strokeWidth=NaN;lucidId=.oArof~L8ejZ;" parent="1" vertex="1">
          <mxGeometry x="673" y="99" width="198" height="110" as="geometry" />
        </mxCell>
        <mxCell id="20R_17lT6FD7MGeCCTBO-2" style="edgeStyle=orthogonalEdgeStyle;rounded=0;orthogonalLoop=1;jettySize=auto;html=1;exitX=0.5;exitY=0;exitDx=0;exitDy=0;" parent="1" source="NHAxA7DP7fW1XG9nDN0d-30" target="NHAxA7DP7fW1XG9nDN0d-17" edge="1">
          <mxGeometry relative="1" as="geometry" />
        </mxCell>
        <mxCell id="Jd-rwpqC0WvthHSy4dQv-18" style="edgeStyle=orthogonalEdgeStyle;rounded=0;orthogonalLoop=1;jettySize=auto;html=1;exitX=0.5;exitY=1;exitDx=0;exitDy=0;curved=1;" edge="1" parent="1" source="NHAxA7DP7fW1XG9nDN0d-30" target="Jd-rwpqC0WvthHSy4dQv-15">
          <mxGeometry relative="1" as="geometry" />
        </mxCell>
        <mxCell id="Jd-rwpqC0WvthHSy4dQv-19" style="edgeStyle=orthogonalEdgeStyle;rounded=0;orthogonalLoop=1;jettySize=auto;html=1;exitX=0.5;exitY=1;exitDx=0;exitDy=0;curved=1;" edge="1" parent="1" source="NHAxA7DP7fW1XG9nDN0d-30" target="Jd-rwpqC0WvthHSy4dQv-16">
          <mxGeometry relative="1" as="geometry" />
        </mxCell>
        <mxCell id="NHAxA7DP7fW1XG9nDN0d-30" value="Partition Banned Term" style="html=1;overflow=block;blockSpacing=1;whiteSpace=wrap;fontSize=16.7;fontFamily=Liberation Serif;spacing=9;strokeOpacity=100;rounded=1;absoluteArcSize=1;arcSize=9;strokeWidth=NaN;lucidId=.oArof~L8ejZ;" parent="1" vertex="1">
          <mxGeometry x="704" y="506" width="136" height="85" as="geometry" />
        </mxCell>
        <mxCell id="Jd-rwpqC0WvthHSy4dQv-13" style="edgeStyle=orthogonalEdgeStyle;rounded=0;orthogonalLoop=1;jettySize=auto;html=1;exitX=0.5;exitY=1;exitDx=0;exitDy=0;" edge="1" parent="1" source="NHAxA7DP7fW1XG9nDN0d-46" target="Jd-rwpqC0WvthHSy4dQv-11">
          <mxGeometry relative="1" as="geometry" />
        </mxCell>
        <mxCell id="NHAxA7DP7fW1XG9nDN0d-46" value="Compute Edit Distance (Levenshtein Distance Algorithm)" style="html=1;overflow=block;blockSpacing=1;whiteSpace=wrap;fontSize=16.7;fontFamily=Liberation Serif;spacing=9;strokeOpacity=100;rounded=1;absoluteArcSize=1;arcSize=9;strokeWidth=NaN;lucidId=.oArof~L8ejZ;" parent="1" vertex="1">
          <mxGeometry x="1221" y="636.5" width="264" height="99" as="geometry" />
        </mxCell>
        <mxCell id="Jd-rwpqC0WvthHSy4dQv-6" style="edgeStyle=orthogonalEdgeStyle;rounded=0;orthogonalLoop=1;jettySize=auto;html=1;exitX=1;exitY=0.5;exitDx=0;exitDy=0;" edge="1" parent="1" source="20R_17lT6FD7MGeCCTBO-5" target="Jd-rwpqC0WvthHSy4dQv-5">
          <mxGeometry relative="1" as="geometry" />
        </mxCell>
        <mxCell id="Jd-rwpqC0WvthHSy4dQv-9" style="edgeStyle=orthogonalEdgeStyle;rounded=0;orthogonalLoop=1;jettySize=auto;html=1;exitX=0.5;exitY=1;exitDx=0;exitDy=0;" edge="1" parent="1" source="20R_17lT6FD7MGeCCTBO-5" target="Jd-rwpqC0WvthHSy4dQv-8">
          <mxGeometry relative="1" as="geometry" />
        </mxCell>
        <mxCell id="20R_17lT6FD7MGeCCTBO-5" value="Extract Tokenized Substring from Message Content" style="html=1;overflow=block;blockSpacing=1;whiteSpace=wrap;fontSize=16.7;fontFamily=Liberation Serif;spacing=9;strokeOpacity=100;rounded=1;absoluteArcSize=1;arcSize=9;strokeWidth=NaN;lucidId=.oArof~L8ejZ;" parent="1" vertex="1">
          <mxGeometry x="946" y="462" width="191" height="96" as="geometry" />
        </mxCell>
        <mxCell id="a9H1on18fe4t332UjABL-1" value="Spam" style="html=1;overflow=block;blockSpacing=1;whiteSpace=wrap;fontSize=16.7;fontFamily=Liberation Serif;spacing=9;strokeOpacity=100;rounded=1;absoluteArcSize=1;arcSize=0;strokeWidth=NaN;lucidId=jpArh5tXi4C4;" parent="1" vertex="1">
          <mxGeometry x="495" y="1144" width="142" height="81" as="geometry" />
        </mxCell>
        <mxCell id="GYJhyorXTEIBPoBnT336-4" value="guild_banned_term" style="shape=table;startSize=30;container=1;collapsible=1;childLayout=tableLayout;fixedRows=1;rowLines=0;fontStyle=1;align=center;resizeLast=1;html=1;" parent="1" vertex="1">
          <mxGeometry x="-935" y="1537" width="180" height="121" as="geometry">
            <mxRectangle x="-825" y="568" width="132" height="33" as="alternateBounds" />
          </mxGeometry>
        </mxCell>
        <mxCell id="GYJhyorXTEIBPoBnT336-5" value="" style="shape=tableRow;horizontal=0;startSize=0;swimlaneHead=0;swimlaneBody=0;fillColor=none;collapsible=0;dropTarget=0;points=[[0,0.5],[1,0.5]];portConstraint=eastwest;top=0;left=0;right=0;bottom=1;" parent="GYJhyorXTEIBPoBnT336-4" vertex="1">
          <mxGeometry y="30" width="180" height="32" as="geometry" />
        </mxCell>
        <mxCell id="GYJhyorXTEIBPoBnT336-6" value="FK" style="shape=partialRectangle;connectable=0;fillColor=none;top=0;left=0;bottom=0;right=0;fontStyle=1;overflow=hidden;whiteSpace=wrap;html=1;" parent="GYJhyorXTEIBPoBnT336-5" vertex="1">
          <mxGeometry width="30" height="32" as="geometry">
            <mxRectangle width="30" height="32" as="alternateBounds" />
          </mxGeometry>
        </mxCell>
        <mxCell id="GYJhyorXTEIBPoBnT336-7" value="guild_id" style="shape=partialRectangle;connectable=0;fillColor=none;top=0;left=0;bottom=0;right=0;align=left;spacingLeft=6;fontStyle=5;overflow=hidden;whiteSpace=wrap;html=1;" parent="GYJhyorXTEIBPoBnT336-5" vertex="1">
          <mxGeometry x="30" width="150" height="32" as="geometry">
            <mxRectangle width="150" height="32" as="alternateBounds" />
          </mxGeometry>
        </mxCell>
        <mxCell id="GYJhyorXTEIBPoBnT336-20" value="" style="shape=tableRow;horizontal=0;startSize=0;swimlaneHead=0;swimlaneBody=0;fillColor=none;collapsible=0;dropTarget=0;points=[[0,0.5],[1,0.5]];portConstraint=eastwest;top=0;left=0;right=0;bottom=1;" parent="GYJhyorXTEIBPoBnT336-4" vertex="1">
          <mxGeometry y="62" width="180" height="30" as="geometry" />
        </mxCell>
        <mxCell id="GYJhyorXTEIBPoBnT336-21" value="FK" style="shape=partialRectangle;connectable=0;fillColor=none;top=0;left=0;bottom=0;right=0;fontStyle=1;overflow=hidden;whiteSpace=wrap;html=1;" parent="GYJhyorXTEIBPoBnT336-20" vertex="1">
          <mxGeometry width="30" height="30" as="geometry">
            <mxRectangle width="30" height="30" as="alternateBounds" />
          </mxGeometry>
        </mxCell>
        <mxCell id="GYJhyorXTEIBPoBnT336-22" value="term_id" style="shape=partialRectangle;connectable=0;fillColor=none;top=0;left=0;bottom=0;right=0;align=left;spacingLeft=6;fontStyle=5;overflow=hidden;whiteSpace=wrap;html=1;" parent="GYJhyorXTEIBPoBnT336-20" vertex="1">
          <mxGeometry x="30" width="150" height="30" as="geometry">
            <mxRectangle width="150" height="30" as="alternateBounds" />
          </mxGeometry>
        </mxCell>
        <mxCell id="GYJhyorXTEIBPoBnT336-8" value="" style="shape=tableRow;horizontal=0;startSize=0;swimlaneHead=0;swimlaneBody=0;fillColor=none;collapsible=0;dropTarget=0;points=[[0,0.5],[1,0.5]];portConstraint=eastwest;top=0;left=0;right=0;bottom=0;" parent="GYJhyorXTEIBPoBnT336-4" vertex="1">
          <mxGeometry y="92" width="180" height="29" as="geometry" />
        </mxCell>
        <mxCell id="GYJhyorXTEIBPoBnT336-9" value="" style="shape=partialRectangle;connectable=0;fillColor=none;top=0;left=0;bottom=0;right=0;editable=1;overflow=hidden;whiteSpace=wrap;html=1;" parent="GYJhyorXTEIBPoBnT336-8" vertex="1">
          <mxGeometry width="30" height="29" as="geometry">
            <mxRectangle width="30" height="29" as="alternateBounds" />
          </mxGeometry>
        </mxCell>
        <mxCell id="GYJhyorXTEIBPoBnT336-10" value="max_offset" style="shape=partialRectangle;connectable=0;fillColor=none;top=0;left=0;bottom=0;right=0;align=left;spacingLeft=6;overflow=hidden;whiteSpace=wrap;html=1;" parent="GYJhyorXTEIBPoBnT336-8" vertex="1">
          <mxGeometry x="30" width="150" height="29" as="geometry">
            <mxRectangle width="150" height="29" as="alternateBounds" />
          </mxGeometry>
        </mxCell>
        <mxCell id="GYJhyorXTEIBPoBnT336-23" value="banned_term" style="shape=table;startSize=30;container=1;collapsible=1;childLayout=tableLayout;fixedRows=1;rowLines=0;fontStyle=1;align=center;resizeLast=1;html=1;" parent="1" vertex="1">
          <mxGeometry x="-682" y="1551.5" width="180" height="92" as="geometry">
            <mxRectangle x="-825" y="568" width="132" height="33" as="alternateBounds" />
          </mxGeometry>
        </mxCell>
        <mxCell id="GYJhyorXTEIBPoBnT336-24" value="" style="shape=tableRow;horizontal=0;startSize=0;swimlaneHead=0;swimlaneBody=0;fillColor=none;collapsible=0;dropTarget=0;points=[[0,0.5],[1,0.5]];portConstraint=eastwest;top=0;left=0;right=0;bottom=1;" parent="GYJhyorXTEIBPoBnT336-23" vertex="1">
          <mxGeometry y="30" width="180" height="32" as="geometry" />
        </mxCell>
        <mxCell id="GYJhyorXTEIBPoBnT336-25" value="PK" style="shape=partialRectangle;connectable=0;fillColor=none;top=0;left=0;bottom=0;right=0;fontStyle=1;overflow=hidden;whiteSpace=wrap;html=1;" parent="GYJhyorXTEIBPoBnT336-24" vertex="1">
          <mxGeometry width="30" height="32" as="geometry">
            <mxRectangle width="30" height="32" as="alternateBounds" />
          </mxGeometry>
        </mxCell>
        <mxCell id="GYJhyorXTEIBPoBnT336-26" value="term_id" style="shape=partialRectangle;connectable=0;fillColor=none;top=0;left=0;bottom=0;right=0;align=left;spacingLeft=6;fontStyle=5;overflow=hidden;whiteSpace=wrap;html=1;" parent="GYJhyorXTEIBPoBnT336-24" vertex="1">
          <mxGeometry x="30" width="150" height="32" as="geometry">
            <mxRectangle width="150" height="32" as="alternateBounds" />
          </mxGeometry>
        </mxCell>
        <mxCell id="GYJhyorXTEIBPoBnT336-33" value="" style="shape=tableRow;horizontal=0;startSize=0;swimlaneHead=0;swimlaneBody=0;fillColor=none;collapsible=0;dropTarget=0;points=[[0,0.5],[1,0.5]];portConstraint=eastwest;top=0;left=0;right=0;bottom=0;" parent="GYJhyorXTEIBPoBnT336-23" vertex="1">
          <mxGeometry y="62" width="180" height="30" as="geometry" />
        </mxCell>
        <mxCell id="GYJhyorXTEIBPoBnT336-34" value="" style="shape=partialRectangle;connectable=0;fillColor=none;top=0;left=0;bottom=0;right=0;editable=1;overflow=hidden;" parent="GYJhyorXTEIBPoBnT336-33" vertex="1">
          <mxGeometry width="30" height="30" as="geometry">
            <mxRectangle width="30" height="30" as="alternateBounds" />
          </mxGeometry>
        </mxCell>
        <mxCell id="GYJhyorXTEIBPoBnT336-35" value="term" style="shape=partialRectangle;connectable=0;fillColor=none;top=0;left=0;bottom=0;right=0;align=left;spacingLeft=6;overflow=hidden;" parent="GYJhyorXTEIBPoBnT336-33" vertex="1">
          <mxGeometry x="30" width="150" height="30" as="geometry">
            <mxRectangle width="150" height="30" as="alternateBounds" />
          </mxGeometry>
        </mxCell>
        <mxCell id="GYJhyorXTEIBPoBnT336-50" value="guild" style="shape=table;startSize=30;container=1;collapsible=1;childLayout=tableLayout;fixedRows=1;rowLines=0;fontStyle=1;align=center;resizeLast=1;html=1;" parent="1" vertex="1">
          <mxGeometry x="-1199" y="1520.5" width="180" height="154" as="geometry" />
        </mxCell>
        <mxCell id="GYJhyorXTEIBPoBnT336-51" value="" style="shape=tableRow;horizontal=0;startSize=0;swimlaneHead=0;swimlaneBody=0;fillColor=none;collapsible=0;dropTarget=0;points=[[0,0.5],[1,0.5]];portConstraint=eastwest;top=0;left=0;right=0;bottom=1;" parent="GYJhyorXTEIBPoBnT336-50" vertex="1">
          <mxGeometry y="30" width="180" height="30" as="geometry" />
        </mxCell>
        <mxCell id="GYJhyorXTEIBPoBnT336-52" value="PK" style="shape=partialRectangle;connectable=0;fillColor=none;top=0;left=0;bottom=0;right=0;fontStyle=1;overflow=hidden;whiteSpace=wrap;html=1;" parent="GYJhyorXTEIBPoBnT336-51" vertex="1">
          <mxGeometry width="30" height="30" as="geometry">
            <mxRectangle width="30" height="30" as="alternateBounds" />
          </mxGeometry>
        </mxCell>
        <mxCell id="GYJhyorXTEIBPoBnT336-53" value="guild_id" style="shape=partialRectangle;connectable=0;fillColor=none;top=0;left=0;bottom=0;right=0;align=left;spacingLeft=6;fontStyle=5;overflow=hidden;whiteSpace=wrap;html=1;" parent="GYJhyorXTEIBPoBnT336-51" vertex="1">
          <mxGeometry x="30" width="150" height="30" as="geometry">
            <mxRectangle width="150" height="30" as="alternateBounds" />
          </mxGeometry>
        </mxCell>
        <mxCell id="GYJhyorXTEIBPoBnT336-54" value="" style="shape=tableRow;horizontal=0;startSize=0;swimlaneHead=0;swimlaneBody=0;fillColor=none;collapsible=0;dropTarget=0;points=[[0,0.5],[1,0.5]];portConstraint=eastwest;top=0;left=0;right=0;bottom=0;" parent="GYJhyorXTEIBPoBnT336-50" vertex="1">
          <mxGeometry y="60" width="180" height="30" as="geometry" />
        </mxCell>
        <mxCell id="GYJhyorXTEIBPoBnT336-55" value="" style="shape=partialRectangle;connectable=0;fillColor=none;top=0;left=0;bottom=0;right=0;editable=1;overflow=hidden;whiteSpace=wrap;html=1;" parent="GYJhyorXTEIBPoBnT336-54" vertex="1">
          <mxGeometry width="30" height="30" as="geometry">
            <mxRectangle width="30" height="30" as="alternateBounds" />
          </mxGeometry>
        </mxCell>
        <mxCell id="GYJhyorXTEIBPoBnT336-56" value="join_date&lt;span style=&quot;white-space: pre;&quot;&gt;&#x9;&lt;/span&gt;" style="shape=partialRectangle;connectable=0;fillColor=none;top=0;left=0;bottom=0;right=0;align=left;spacingLeft=6;overflow=hidden;whiteSpace=wrap;html=1;" parent="GYJhyorXTEIBPoBnT336-54" vertex="1">
          <mxGeometry x="30" width="150" height="30" as="geometry">
            <mxRectangle width="150" height="30" as="alternateBounds" />
          </mxGeometry>
        </mxCell>
        <mxCell id="GYJhyorXTEIBPoBnT336-57" value="" style="shape=tableRow;horizontal=0;startSize=0;swimlaneHead=0;swimlaneBody=0;fillColor=none;collapsible=0;dropTarget=0;points=[[0,0.5],[1,0.5]];portConstraint=eastwest;top=0;left=0;right=0;bottom=0;" parent="GYJhyorXTEIBPoBnT336-50" vertex="1">
          <mxGeometry y="90" width="180" height="34" as="geometry" />
        </mxCell>
        <mxCell id="GYJhyorXTEIBPoBnT336-58" value="" style="shape=partialRectangle;connectable=0;fillColor=none;top=0;left=0;bottom=0;right=0;editable=1;overflow=hidden;whiteSpace=wrap;html=1;" parent="GYJhyorXTEIBPoBnT336-57" vertex="1">
          <mxGeometry width="30" height="34" as="geometry">
            <mxRectangle width="30" height="34" as="alternateBounds" />
          </mxGeometry>
        </mxCell>
        <mxCell id="GYJhyorXTEIBPoBnT336-59" value="auth_role" style="shape=partialRectangle;connectable=0;fillColor=none;top=0;left=0;bottom=0;right=0;align=left;spacingLeft=6;overflow=hidden;whiteSpace=wrap;html=1;" parent="GYJhyorXTEIBPoBnT336-57" vertex="1">
          <mxGeometry x="30" width="150" height="34" as="geometry">
            <mxRectangle width="150" height="34" as="alternateBounds" />
          </mxGeometry>
        </mxCell>
        <mxCell id="GYJhyorXTEIBPoBnT336-60" value="" style="shape=tableRow;horizontal=0;startSize=0;swimlaneHead=0;swimlaneBody=0;fillColor=none;collapsible=0;dropTarget=0;points=[[0,0.5],[1,0.5]];portConstraint=eastwest;top=0;left=0;right=0;bottom=0;" parent="GYJhyorXTEIBPoBnT336-50" vertex="1">
          <mxGeometry y="124" width="180" height="30" as="geometry" />
        </mxCell>
        <mxCell id="GYJhyorXTEIBPoBnT336-61" value="" style="shape=partialRectangle;connectable=0;fillColor=none;top=0;left=0;bottom=0;right=0;editable=1;overflow=hidden;whiteSpace=wrap;html=1;" parent="GYJhyorXTEIBPoBnT336-60" vertex="1">
          <mxGeometry width="30" height="30" as="geometry">
            <mxRectangle width="30" height="30" as="alternateBounds" />
          </mxGeometry>
        </mxCell>
        <mxCell id="GYJhyorXTEIBPoBnT336-62" value="guild_expiry" style="shape=partialRectangle;connectable=0;fillColor=none;top=0;left=0;bottom=0;right=0;align=left;spacingLeft=6;overflow=hidden;whiteSpace=wrap;html=1;" parent="GYJhyorXTEIBPoBnT336-60" vertex="1">
          <mxGeometry x="30" width="150" height="30" as="geometry">
            <mxRectangle width="150" height="30" as="alternateBounds" />
          </mxGeometry>
        </mxCell>
        <mxCell id="Jd-rwpqC0WvthHSy4dQv-7" style="edgeStyle=orthogonalEdgeStyle;rounded=0;orthogonalLoop=1;jettySize=auto;html=1;exitX=0.5;exitY=0;exitDx=0;exitDy=0;entryX=0.5;entryY=0;entryDx=0;entryDy=0;shape=link;" edge="1" parent="1" source="Jd-rwpqC0WvthHSy4dQv-5" target="2FGFBQ_vrIf0yYBramS8-14">
          <mxGeometry relative="1" as="geometry">
            <Array as="points">
              <mxPoint x="1339" y="418" />
              <mxPoint x="555" y="418" />
            </Array>
          </mxGeometry>
        </mxCell>
        <mxCell id="Jd-rwpqC0WvthHSy4dQv-5" value="Number of Partitions&lt;br&gt;==&lt;br&gt;Number of Occurrences" style="html=1;overflow=block;blockSpacing=1;whiteSpace=wrap;fontSize=16.7;fontFamily=Liberation Serif;spacing=9;strokeOpacity=100;rounded=1;absoluteArcSize=1;arcSize=9;strokeWidth=NaN;lucidId=.oArof~L8ejZ;" vertex="1" parent="1">
          <mxGeometry x="1243" y="462" width="191" height="96" as="geometry" />
        </mxCell>
        <mxCell id="Jd-rwpqC0WvthHSy4dQv-10" style="edgeStyle=orthogonalEdgeStyle;rounded=0;orthogonalLoop=1;jettySize=auto;html=1;exitX=1;exitY=0.5;exitDx=0;exitDy=0;" edge="1" parent="1" source="Jd-rwpqC0WvthHSy4dQv-8" target="NHAxA7DP7fW1XG9nDN0d-46">
          <mxGeometry relative="1" as="geometry" />
        </mxCell>
        <mxCell id="Jd-rwpqC0WvthHSy4dQv-8" value="Number of Occurrences &amp;gt;=&amp;nbsp;&lt;br&gt;1" style="html=1;overflow=block;blockSpacing=1;whiteSpace=wrap;fontSize=16.7;fontFamily=Liberation Serif;spacing=9;strokeOpacity=100;rounded=1;absoluteArcSize=1;arcSize=9;strokeWidth=NaN;lucidId=.oArof~L8ejZ;" vertex="1" parent="1">
          <mxGeometry x="946" y="638" width="191" height="96" as="geometry" />
        </mxCell>
        <mxCell id="Jd-rwpqC0WvthHSy4dQv-14" style="rounded=0;orthogonalLoop=1;jettySize=auto;html=1;exitX=0;exitY=0.5;exitDx=0;exitDy=0;entryX=1;entryY=1;entryDx=0;entryDy=0;shape=link;" edge="1" parent="1" source="Jd-rwpqC0WvthHSy4dQv-11" target="2FGFBQ_vrIf0yYBramS8-15">
          <mxGeometry relative="1" as="geometry" />
        </mxCell>
        <mxCell id="Jd-rwpqC0WvthHSy4dQv-11" value="Edit Distance &amp;lt;= Max Offset of Banned Term" style="html=1;overflow=block;blockSpacing=1;whiteSpace=wrap;fontSize=16.7;fontFamily=Liberation Serif;spacing=9;strokeOpacity=100;rounded=1;absoluteArcSize=1;arcSize=9;strokeWidth=NaN;lucidId=.oArof~L8ejZ;" vertex="1" parent="1">
          <mxGeometry x="1221" y="802" width="264" height="99" as="geometry" />
        </mxCell>
        <mxCell id="Jd-rwpqC0WvthHSy4dQv-15" value="Pigeonhole Principle:&lt;br&gt;banned term: &quot;loser&quot;&lt;br&gt;max offset of banned term: 1&lt;div&gt;partitioning:&amp;nbsp;&lt;br&gt;&quot;los&quot;&lt;/div&gt;&lt;div&gt;&quot;er&quot;&lt;br&gt;&lt;br&gt;- message content: &quot;lxser&quot;&lt;br&gt;&quot;los&quot; does not match &quot;lxs&quot;&lt;/div&gt;&lt;div&gt;but&lt;br&gt;&quot;er&quot; matches&lt;br&gt;&lt;br&gt;&lt;div&gt;&lt;br&gt;&lt;/div&gt;&lt;/div&gt;" style="html=1;overflow=block;blockSpacing=1;whiteSpace=wrap;fontSize=16.7;fontFamily=Liberation Serif;spacing=9;strokeOpacity=100;rounded=1;absoluteArcSize=1;arcSize=9;strokeWidth=NaN;lucidId=.oArof~L8ejZ;" vertex="1" parent="1">
          <mxGeometry x="561" y="845.5" width="264" height="241.5" as="geometry" />
        </mxCell>
        <mxCell id="Jd-rwpqC0WvthHSy4dQv-16" value="Improvement:&lt;br&gt;Edit Distance algorithms are expensive to call, by partitioning the banned terms with the pigeonhole principle, we can filter out message content for prominent candidates." style="html=1;overflow=block;blockSpacing=1;whiteSpace=wrap;fontSize=16.7;fontFamily=Liberation Serif;spacing=9;strokeOpacity=100;rounded=1;absoluteArcSize=1;arcSize=9;strokeWidth=NaN;lucidId=.oArof~L8ejZ;" vertex="1" parent="1">
          <mxGeometry x="902" y="879.25" width="264" height="174" as="geometry" />
        </mxCell>
        <mxCell id="Jd-rwpqC0WvthHSy4dQv-22" value="" style="rounded=0;whiteSpace=wrap;html=1;" vertex="1" parent="1">
          <mxGeometry x="-1012" y="1782" width="242" height="264" as="geometry" />
        </mxCell>
      </root>
    </mxGraphModel>
  </diagram>
</mxfile>
